<?xml version="1.0" encoding="UTF-8" standalone="no"?>
<!-- Created with Inkscape (http://www.inkscape.org/) -->

<svg
   xmlns:dc="http://purl.org/dc/elements/1.1/"
   xmlns:cc="http://creativecommons.org/ns#"
   xmlns:rdf="http://www.w3.org/1999/02/22-rdf-syntax-ns#"
   xmlns:svg="http://www.w3.org/2000/svg"
   xmlns="http://www.w3.org/2000/svg"
   xmlns:sodipodi="http://sodipodi.sourceforge.net/DTD/sodipodi-0.dtd"
   xmlns:inkscape="http://www.inkscape.org/namespaces/inkscape"
   width="512"
   height="512"
   viewBox="0 0 135.46666 135.46667"
   version="1.1"
   id="svg8"
   sodipodi:docname="black.svg"
   inkscape:version="0.92.2 5c3e80d, 2017-08-06">
  <defs
     id="defs2" />
  <sodipodi:namedview
     id="base"
     pagecolor="#ffffff"
     bordercolor="#666666"
     borderopacity="1.0"
     inkscape:pageopacity="0.0"
     inkscape:pageshadow="2"
     inkscape:zoom="1.6748775"
     inkscape:cx="256"
     inkscape:cy="256.00046"
     inkscape:document-units="mm"
     inkscape:current-layer="layer1"
     showgrid="false"
     units="px"
     showguides="false"
     inkscape:guide-bbox="true"
     inkscape:snap-bbox="true"
     inkscape:snap-bbox-midpoints="true"
     inkscape:window-width="1920"
     inkscape:window-height="1009"
     inkscape:window-x="0"
     inkscape:window-y="34"
     inkscape:window-maximized="1"
     inkscape:snap-global="true">
    <sodipodi:guide
       position="67.733332,67.733332"
       orientation="1,0"
       id="guide4575"
       inkscape:locked="false"
       inkscape:label=""
       inkscape:color="rgb(0,0,255)" />
    <sodipodi:guide
       position="67.733332,67.733332"
       orientation="0,1"
       id="guide4577"
       inkscape:locked="false"
       inkscape:label=""
       inkscape:color="rgb(0,0,255)" />
    <inkscape:grid
       type="xygrid"
       id="grid5255" />
  </sodipodi:namedview>
  <metadata
     id="metadata5">
    <rdf:RDF>
      <cc:Work
         rdf:about="">
        <dc:format>image/svg+xml</dc:format>
        <dc:type
           rdf:resource="http://purl.org/dc/dcmitype/StillImage" />
        <dc:title></dc:title>
      </cc:Work>
    </rdf:RDF>
  </metadata>
  <g
     inkscape:label="Layer 1"
     inkscape:groupmode="layer"
     id="layer1"
     transform="translate(0,-161.53332)">
    <path
       style="fill:#000000;fill-opacity:1;stroke-width:140.42152405;stroke-miterlimit:4;stroke-dasharray:none"
       d="m 85.21875,10.609375 c -2.322334,0.01512 -4.12946,0.870308 -7.28125,2.578125 -39.748139,37.326387 -81.3438338,118.61572 -62.490234,165.11914 5.394824,10.09421 16.326595,21.94394 27.185546,29.46875 l 11.048829,7.65625 c 0.492151,2.33753 1.031841,4.58975 1.591797,6.80274 a 201.62345,188.96935 0 0 0 -0.896485,16.79882 201.62345,188.96935 0 0 0 66.068357,139.58594 v 6.73242 c 0,37.72634 15.8671,70.6881 39.81641,89.26172 A 104.21586,44.061158 0 0 0 256,501.39062 104.21586,44.061158 0 0 0 352.16797,474.28125 c 23.70944,-18.63337 39.38672,-51.42918 39.38672,-88.92969 v -6.71094 a 201.62345,188.96935 0 0 0 66.06836,-139.60742 201.62345,188.96935 0 0 0 -0.93164,-16.66015 c 0.57316,-2.25691 1.12442,-4.55471 1.62695,-6.94141 l 11.04883,-7.65625 c 10.85896,-7.52481 21.79076,-19.37454 27.18554,-29.46875 C 515.40634,131.80322 473.81062,50.513887 434.0625,13.1875 c -6.30357,-3.4156724 -7.23207,-3.4221198 -17.65234,-0.117188 -15.89798,5.04223 -32.9066,16.958465 -49.68555,34.806641 l -14.68164,15.615235 c -6.84863,0.09335 -13.35457,0.367367 -19.58203,0.785156 A 201.62345,188.96935 0 0 0 256,50.0625 201.62345,188.96935 0 0 0 179.65234,64.285156 c -6.26143,-0.422211 -12.8072,-0.698896 -19.69726,-0.792968 L 145.27539,47.876953 C 128.49644,30.028777 111.48584,18.112542 95.587891,13.070312 90.377748,11.417827 87.541084,10.59403 85.21875,10.609375 Z m 65.3125,124.421875 c 45.77357,-0.48488 55.44575,45.4034 65.20898,101.92578 -17.6654,-16.16167 -42.36779,-25.34449 -68.23632,-25.36719 -22.76804,0.0368 -44.73841,7.17398 -61.792972,20.07422 4.696689,-55.43648 32.285022,-96.56401 64.820312,-96.63281 z m 210.9375,0 c 32.53525,0.0688 60.12357,41.19633 64.82031,96.63281 -17.05459,-12.90024 -39.02495,-20.03742 -61.79297,-20.07422 -25.86853,0.0227 -50.57092,9.20552 -68.23632,25.36719 9.76324,-56.52238 19.43541,-102.41066 65.20898,-101.92578 z m -215.20313,98.95898 c 15.56508,-0.14285 32.95812,4.93277 55.55079,17.13672 a 5.7238088,6.0395563 0 0 1 0.32812,0.17383 c 0.0233,0.0126 0.0452,0.0245 0.0684,0.0371 l -0.004,0.006 a 5.7238088,6.0395563 0 0 1 2.86329,5.22461 5.7238088,6.0395563 0 0 1 -5.72461,6.03906 5.7238088,6.0395563 0 0 1 -2.88282,-0.82812 c -7.55517,-4.09544 -14.3311,-7.25976 -20.51953,-9.66211 a 30.065986,30.251002 0 0 1 3.8086,14.66406 30.065986,30.251002 0 0 1 -30.06641,30.25 30.065986,30.251002 0 0 1 -30.06641,-30.25 30.065986,30.251002 0 0 1 4.91407,-16.5293 c -5.01832,1.88457 -10.13593,4.31566 -15.64454,7.1875 a 5.7238088,6.0395563 0 0 1 -2.86328,0.82032 5.7238088,6.0395563 0 0 1 -5.72461,-6.04102 5.7238088,6.0395563 0 0 1 3.56446,-5.58789 c 13.80589,-7.16366 26.93085,-12.49874 42.39843,-12.64063 z m 219.47071,0 c 15.4676,0.14196 28.59043,5.47674 42.39648,12.64063 a 5.7238088,6.0395563 0 0 1 3.56446,5.58789 5.7238088,6.0395563 0 0 1 -5.72461,6.04102 5.7238088,6.0395563 0 0 1 -2.86328,-0.82032 c -5.50862,-2.87184 -10.62622,-5.30292 -15.64454,-7.1875 a 30.065986,30.251002 0 0 1 4.91407,16.5293 30.065986,30.251002 0 0 1 -30.06641,30.25 30.065986,30.251002 0 0 1 -30.06445,-30.25 30.065986,30.251002 0 0 1 3.80664,-14.66406 c -6.17212,2.39603 -12.92969,5.55101 -20.46094,9.63086 a 5.7238088,6.0395563 0 0 1 -2.90039,0.83984 5.7238088,6.0395563 0 0 1 -5.72266,-6.03906 5.7238088,6.0395563 0 0 1 2.82422,-5.20117 l -0.006,-0.01 c 0.0402,-0.0218 0.0789,-0.0407 0.11914,-0.0625 a 5.7238088,6.0395563 0 0 1 0.25977,-0.13867 c 22.6013,-12.21105 39.99919,-17.2893 55.56836,-17.14649 z M 256,341.19531 c 16.17811,0.0401 28.58808,4.57246 47.78906,16.20899 -7.82132,14.21996 -26.2732,33.98141 -42.68359,37.71875 v 33.61328 c 3.6636,8.44238 8.41183,14.92274 15.50195,19.38867 7.34285,4.62512 17.51302,7.26503 32.42774,6.73828 l 0.36132,10.20313 c -16.29818,0.57562 -28.75589,-2.33686 -38.23046,-8.30469 -6.44376,-4.05879 -11.35062,-9.46044 -15.16602,-15.69141 -3.8154,6.23097 -8.72226,11.63262 -15.16602,15.69141 -9.47457,5.96783 -21.93228,8.88031 -38.23046,8.30469 l 0.35351,-10.20313 c 14.91472,0.52675 25.09465,-2.11316 32.4375,-6.73828 7.09064,-4.46626 11.83824,-10.94735 15.50195,-19.39062 V 395.19531 C 234.4757,391.64593 216.08562,371.80718 208.21094,357.49023 227.38684,345.86898 240.67388,341.22181 256,341.19531 Z m -0.004,88.61524 0.004,0.002 0.004,-0.002 z"
       transform="matrix(0.26458333,0,0,0.26458333,0,161.53332)"
       id="path4612-7"
       inkscape:connector-curvature="0" />
  </g>
</svg>
